<svg id="Layer_1" data-name="Layer 1" xmlns="http://www.w3.org/2000/svg" width="338" height="100" viewBox="0 0 338 100"><defs><style>.cls-1{fill:#6b5c61;}.cls-2{fill:#ff9021;}</style></defs><title>animal-welfare-logo</title><polygon class="cls-1" points="74.03 35.84 72.01 33.81 63.9 33.81 61.87 35.84 61.87 43.95 51.73 33.81 43.62 33.81 41.59 35.84 41.59 64.22 43.62 66.25 51.73 66.25 53.76 64.22 53.76 56.11 63.9 66.25 72.01 66.25 74.03 64.22 74.03 48 74.03 35.84"/><polygon class="cls-2" points="106.48 39.89 106.48 35.84 104.46 33.81 96.34 33.81 94.32 35.84 94.32 39.89 90.26 43.95 86.2 39.89 86.2 35.84 84.18 33.81 76.06 33.81 74.03 35.84 74.03 48 84.18 58.14 84.18 64.22 86.2 66.25 94.32 66.25 96.34 64.22 96.34 58.14 106.48 48 106.48 39.89"/><polygon points="106.48 48 106.48 60.17 112.57 66.25 132.85 66.25 138.93 60.17 138.93 54.09 136.91 52.05 126.76 52.05 126.76 54.09 118.65 54.09 118.65 45.97 126.76 45.97 126.76 47.98 136.91 47.98 136.91 47.98 138.93 45.97 138.93 39.89 132.85 33.81 112.57 33.81 106.48 39.89 106.48 48"/><path d="M137.76,34.64h.13c.16,0,.28,0,.28-.18s-.08-.18-.25-.18h-.16v.35Zm0,.68h-.28V34.11a2.64,2.64,0,0,1,.47,0,.7.7,0,0,1,.41.09.32.32,0,0,1,.13.26.31.31,0,0,1-.25.29v0c.11,0,.17.13.21.29a1.2,1.2,0,0,0,.09.3h-.3a1,1,0,0,1-.09-.3.22.22,0,0,0-.25-.18h-.14v.48Zm-.75-.63a1,1,0,0,0,.95,1,.93.93,0,0,0,.93-1,.94.94,0,1,0-1.88,0Zm2.19,0A1.25,1.25,0,1,1,138,33.48a1.23,1.23,0,0,1,1.24,1.21Z"/><path d="M90.26,45.79a3.48,3.48,0,0,0-2.11.49s-.24.16.08.57,1.71,1.78,1.71,1.78a.47.47,0,0,0,.32.08Z"/><path d="M90.26,45.79a3.48,3.48,0,0,1,2.11.49s.24.16-.08.57-1.71,1.78-1.71,1.78a.47.47,0,0,1-.32.08Z"/><path d="M95.13,46.91a8.48,8.48,0,0,1,1.77-.38,12,12,0,0,1,1.79-.06,12.44,12.44,0,0,1,3.48.7,11.33,11.33,0,0,0-1.73-.37,10.3,10.3,0,0,0-1.75-.12,11.38,11.38,0,0,0-1.75.15,8.31,8.31,0,0,0-1.66.46h0a.2.2,0,0,1-.27-.11.2.2,0,0,1,.11-.26Z"/><path d="M95,48.19a10.7,10.7,0,0,1,2.33,0,17.49,17.49,0,0,1,2.27.33,20.49,20.49,0,0,1,2.21.58c.73.23,1.44.51,2.15.8-.72-.26-1.44-.5-2.17-.7s-1.48-.36-2.23-.49a21.15,21.15,0,0,0-2.25-.22,11,11,0,0,0-2.23.15h0a.2.2,0,1,1-.08-.4Z"/><path d="M94.71,49.4a7.51,7.51,0,0,1,1.78.27,10.09,10.09,0,0,1,1.67.6,9.6,9.6,0,0,1,1.52.89A11.24,11.24,0,0,1,101,52.28a10.9,10.9,0,0,0-1.41-1,10.22,10.22,0,0,0-1.55-.78,9.89,9.89,0,0,0-1.66-.5,7,7,0,0,0-1.69-.15h0a.22.22,0,0,1-.21-.2.21.21,0,0,1,.2-.21Z"/><path d="M85.24,47.29a8.13,8.13,0,0,0-1.66-.46,11.38,11.38,0,0,0-1.75-.15,10.3,10.3,0,0,0-1.75.12,11.33,11.33,0,0,0-1.73.37,12.44,12.44,0,0,1,3.48-.7,12,12,0,0,1,1.79.06,8.71,8.71,0,0,1,1.78.38.21.21,0,0,1-.14.39h0Z"/><path d="M85.44,48.59a11,11,0,0,0-2.23-.15,21.15,21.15,0,0,0-2.25.22c-.75.13-1.49.29-2.22.49s-1.46.44-2.18.7c.71-.29,1.42-.57,2.15-.8a20.49,20.49,0,0,1,2.21-.58,17.39,17.39,0,0,1,2.28-.33,10.62,10.62,0,0,1,2.32,0,.2.2,0,0,1,.17.23.2.2,0,0,1-.23.17h0Z"/><path d="M85.79,49.81A7,7,0,0,0,84.1,50a9.89,9.89,0,0,0-1.66.5,10.22,10.22,0,0,0-1.55.78,10.9,10.9,0,0,0-1.41,1,11.24,11.24,0,0,1,1.36-1.12,9.6,9.6,0,0,1,1.52-.89,10.09,10.09,0,0,1,1.67-.6,7.51,7.51,0,0,1,1.78-.27.2.2,0,0,1,.21.2.22.22,0,0,1-.2.21h0Z"/><path d="M146.86,33.89h5l2.25,8.72h0l2.25-8.72h5V47h-3.21V37h0L155.45,47h-2.6L150.1,37h0V47h-3.21Z"/><path d="M163.27,40.39a2.91,2.91,0,0,1,1.49-2.54,6.22,6.22,0,0,1,3-.66c2.25,0,4.43.49,4.43,3.19v4.15a5.49,5.49,0,0,0,.37,2.44h-3.13a3.9,3.9,0,0,1-.19-.9,4.28,4.28,0,0,1-3.13,1.17c-1.81,0-3.24-.91-3.24-2.87,0-3.1,3.37-2.86,5.53-3.3.53-.11.82-.29.82-.88s-.86-1-1.5-1a1.39,1.39,0,0,0-1.55,1.19Zm4,4.93c1.49,0,2-.84,1.91-2.8a8.93,8.93,0,0,1-1.93.51c-.69.17-1.28.46-1.28,1.21S166.61,45.32,167.3,45.32Z"/><path d="M178.83,47.81c-.75,2.09-1.87,2.34-4,2.34h-1.47V47.63h1.08a1.11,1.11,0,0,0,1.25-1.06,13.38,13.38,0,0,0-.79-2.5l-2.46-6.61h3.3l1.8,6.19h0l1.8-6.19h3.18Z"/><path d="M187.36,37.19a5,5,0,1,1-5,5A4.87,4.87,0,0,1,187.36,37.19Zm0,7.67c1.45,0,1.9-1.43,1.9-2.64s-.45-2.65-1.9-2.65-1.89,1.45-1.89,2.65S185.91,44.86,187.36,44.86Z"/><path d="M193.68,37.46h3v1.67h0a2.87,2.87,0,0,1,2.86-1.85,3.61,3.61,0,0,1,.73.07v2.84a4.34,4.34,0,0,0-1.19-.18,2.18,2.18,0,0,0-2.34,2.25V47h-3.11Z"/><path d="M201.55,33.89h2.92v3a3.3,3.3,0,0,1-2.92,3.55V39a1.62,1.62,0,0,0,1.32-1.72h-1.32Z"/><path d="M208.38,43.84a1.29,1.29,0,0,0,.51,1.06,2,2,0,0,0,1.16.33c.6,0,1.46-.26,1.46-1s-1-.88-1.52-1c-2-.49-4.41-.55-4.41-3.11,0-2.29,2.47-2.91,4.34-2.91,2.09,0,4.26.6,4.37,3.08h-2.87a.92.92,0,0,0-.4-.83,1.91,1.91,0,0,0-1-.24c-.52,0-1.34.06-1.34.72,0,.89,2.09,1.06,3.52,1.37a2.69,2.69,0,0,1,2.41,2.56c0,2.55-2.41,3.39-4.56,3.39s-4.56-.75-4.65-3.4Z"/><path d="M227.26,33.62c4.12,0,6.45,3,6.45,6.81s-2.33,6.81-6.45,6.81-6.44-3-6.44-6.81S223.14,33.62,227.26,33.62Zm0,10.69c2.2,0,3-1.94,3-3.88s-.84-3.88-3-3.88-3,1.94-3,3.88S225.07,44.31,227.26,44.31Z"/><path d="M235.86,39.48h-1.5v-2h1.5c0-2.73.95-3.57,3.61-3.57.49,0,1,0,1.5.06v2.19a8.21,8.21,0,0,0-.84,0c-.72,0-1.16.09-1.16.95v.42h1.87v2H239V47h-3.11Z"/><path d="M242.64,39.48h-1.5v-2h1.5c0-2.73,1-3.57,3.61-3.57.49,0,1,0,1.5.06v2.19a8.21,8.21,0,0,0-.84,0c-.71,0-1.15.09-1.15.95v.42h1.86v2h-1.86V47h-3.12Z"/><path d="M251.56,36.27h-3.11V33.89h3.11Zm-3.11,1.19h3.11V47h-3.11Z"/><path d="M259.5,40.94A1.47,1.47,0,0,0,258,39.57c-1.74,0-2,1.48-2,2.8s.53,2.49,1.85,2.49a1.67,1.67,0,0,0,1.78-1.63h3a4.45,4.45,0,0,1-4.78,4,4.73,4.73,0,0,1-5-4.87c0-3,1.92-5.18,5-5.18,2.36,0,4.47,1.24,4.69,3.75Z"/><path d="M266.42,43a2,2,0,0,0,2.13,2.16,1.84,1.84,0,0,0,1.77-1h2.92c-.57,2.2-2.61,3.15-4.73,3.15-3.09,0-5.2-1.87-5.2-5.05a5,5,0,0,1,5.13-5c3.4,0,5.11,2.56,5,5.79Zm3.87-1.74a1.93,1.93,0,0,0-1.85-2,2.06,2.06,0,0,0-2,2Z"/><path d="M284.54,37.19a5,5,0,1,1-5,5A4.87,4.87,0,0,1,284.54,37.19Zm0,7.67c1.44,0,1.9-1.43,1.9-2.64s-.46-2.65-1.9-2.65-1.89,1.45-1.89,2.65S283.09,44.86,284.54,44.86Z"/><path d="M291.3,39.48h-1.5v-2h1.5c0-2.73.95-3.57,3.61-3.57.49,0,1,0,1.5.06v2.19a8.21,8.21,0,0,0-.84,0c-.71,0-1.15.09-1.15.95v.42h1.86v2h-1.86V47H291.3Z"/><path d="M150.4,53.17h3.46l4.89,13.08h-3.56l-.8-2.35h-4.56L149,66.25h-3.49Zm.22,8.21h3l-1.44-4.58h0Z"/><path d="M159.4,56.74h3V58h0a3.59,3.59,0,0,1,3-1.57c3.17,0,3.42,2.31,3.42,3.68v6.1h-3.11v-4.6c0-1.3.15-2.62-1.56-2.62-1.17,0-1.68,1-1.68,2v5.18H159.4Z"/><path d="M173.75,55.55h-3.11V53.17h3.11Zm-3.11,1.19h3.11v9.51h-3.11Z"/><path d="M175.51,56.74h3V58h0a3.18,3.18,0,0,1,2.73-1.57A2.73,2.73,0,0,1,184.06,58a3.5,3.5,0,0,1,3-1.54c3,0,3.35,2.29,3.35,4.1v5.68h-3.11V60.66c0-1-.49-1.63-1.3-1.63-1.34,0-1.47,1-1.47,2.57v4.65h-3.11v-5.4c0-1.12-.33-1.82-1.17-1.82-1.12,0-1.59.64-1.59,2.59v4.63h-3.12Z"/><path d="M192,59.67a2.91,2.91,0,0,1,1.48-2.54,6.22,6.22,0,0,1,3-.66c2.25,0,4.43.49,4.43,3.19v4.15a5.49,5.49,0,0,0,.37,2.44h-3.13a3.9,3.9,0,0,1-.19-.9,4.28,4.28,0,0,1-3.13,1.17c-1.81,0-3.24-.91-3.24-2.87,0-3.1,3.37-2.86,5.53-3.3.53-.11.83-.29.83-.88s-.87-1-1.51-1a1.39,1.39,0,0,0-1.55,1.19Zm4,4.93c1.49,0,2-.84,1.91-2.8a9,9,0,0,1-1.92.51c-.7.17-1.29.46-1.29,1.21S195.34,64.6,196,64.6Z"/><path d="M202.7,53.17h3.11V66.25H202.7Z"/><path d="M226,66.25h-3.4l-1.8-9h0l-1.8,9h-3.46L212,53.17h3.41l1.85,9.56h0l1.92-9.56h3.21l1.92,9.56h0l1.85-9.56h3.41Z"/><path d="M232.39,62.26a2,2,0,0,0,2.13,2.16,1.84,1.84,0,0,0,1.77-1.05h2.91c-.56,2.2-2.6,3.15-4.72,3.15-3.1,0-5.2-1.86-5.2-5a5,5,0,0,1,5.13-5c3.4,0,5.11,2.56,5,5.79Zm3.87-1.74a1.93,1.93,0,0,0-1.85-1.94,2.06,2.06,0,0,0-2,1.94Z"/><path d="M240.63,53.17h3.11V66.25h-3.11Z"/><path d="M246.18,58.76h-1.5v-2h1.5c0-2.72,1-3.57,3.61-3.57.5,0,1,0,1.5.06v2.2a6.15,6.15,0,0,0-.84-.06c-.71,0-1.15.09-1.15,1v.42h1.86v2H249.3v7.49h-3.12Z"/><path d="M251.76,59.67a2.93,2.93,0,0,1,1.48-2.54,6.28,6.28,0,0,1,3-.66c2.25,0,4.43.49,4.43,3.19v4.15a5.63,5.63,0,0,0,.36,2.44h-3.13a3.88,3.88,0,0,1-.18-.9,4.31,4.31,0,0,1-3.13,1.17c-1.82,0-3.24-.91-3.24-2.87,0-3.1,3.37-2.86,5.53-3.3.53-.11.82-.29.82-.88s-.86-1-1.5-1a1.4,1.4,0,0,0-1.56,1.19Zm4,4.93c1.48,0,2-.84,1.9-2.8a8.83,8.83,0,0,1-1.92.51c-.69.17-1.28.46-1.28,1.21S255.09,64.6,255.79,64.6Z"/><path d="M262.47,56.74h3v1.67h0a2.87,2.87,0,0,1,2.86-1.85,3.54,3.54,0,0,1,.73.07v2.84a4.28,4.28,0,0,0-1.19-.18,2.19,2.19,0,0,0-2.34,2.25v4.71h-3.11Z"/><path d="M272.52,62.26a2,2,0,0,0,2.13,2.16,1.84,1.84,0,0,0,1.77-1.05h2.91c-.56,2.2-2.6,3.15-4.72,3.15-3.1,0-5.2-1.86-5.2-5a5,5,0,0,1,5.13-5c3.4,0,5.11,2.56,5,5.79Zm3.87-1.74a1.93,1.93,0,0,0-1.85-1.94,2.06,2.06,0,0,0-2,1.94Z"/></svg>